<?xml version="1.0" encoding="utf-8"?>
<!-- Generator: Adobe Illustrator 22.1.0, SVG Export Plug-In . SVG Version: 6.00 Build 0)  -->
<svg version="1.1" id="Слой_1" xmlns="http://www.w3.org/2000/svg" xmlns:xlink="http://www.w3.org/1999/xlink" x="0px" y="0px"
	 viewBox="0 0 200 245" style="enable-background:new 0 0 200 245;" xml:space="preserve">
<style type="text/css">
	.st0{fill:#FEFEFE;}
	.st1{fill:#181B23;stroke:#5E688E;stroke-miterlimit:10;}
	.st2{fill:#5E688E;}
	.st3{fill:#DD4743;}
	.st4{fill:#FCC9E3;}
	.st5{fill:#0E113D;}
	.st6{fill:#FAFBFC;}
</style>
<g>
	<path class="st0" d="M186.4,160.1c0.9-0.1,1.6,0.3,2.4,0.8c1.8,1.1,3.7,2.3,5.6,3.4c1.8,1,4.1,0.5,5.1-1.2c1.1-1.7,0.3-3.1-1.1-4.2
		c-0.4-0.3-0.8-0.7-1.3-1c-3-2.3-6-4.6-9-6.9c-0.5-0.4-1.2-0.8-1.1-1.4c0.2-0.8,1-0.4,1.6-0.5c0.4-0.1,0.8,0,1.2,0
		c3.4-0.3,6-2.2,6.6-4.9c0.5-2.1-0.2-3.1-2.4-3.1c-4.9,0-9.8,0-14.7,0c-0.4-1-1.2-1.6-1.9-2.3c-3.5-4.1-7.5-7.7-10.8-12
		c0.6-0.6,0.7-1.4,0.9-2.1c3.7-11.7,4.7-23.7,3.2-35.9c-4.8-37.8-33.2-67.4-70.7-74c1-4.5,0.3-8.5-3.4-11.6C93.1-0.1,89,0,84.6,1.7
		C79.8,3.6,75,5.3,70.2,7.2C68.1,8,66,8.6,64,9.7c-4.1,2.2-6.9,5.8-9.2,9.7c-0.8,0.3-1.6,0.5-2.4,0.8C12.7,37-8.3,80.3,3.1,121.8
		c2.3,8.5,5.7,16.6,10.8,23.8c1.5,4,3.2,7.9,6.4,10.9c2,1.8,4.5,3,6.7,4.6c-8.7,23.8-17.4,47.7-26.2,71.5c-0.6,1.7-0.2,2.2,1.4,2.7
		c20.2,6.3,42.1-4.3,50.1-24.4c0.6-1.4,1.1-2.8,1.7-4.2c0.1,0,0.3,0.1,0.4,0.1c0,0.7,0,1.3,0,2c0,11.3,0.1,22.5-0.1,33.8
		c0,2.2,0.7,2.6,2.7,2.4c14.1-1.5,23.9-8.8,29.6-21.7c2.4-5.5,2.5-11.3,2.8-17.1c0-0.1,0.1-0.3,0.1-0.4l0,0.1
		c4.1-5,5.8-10.9,7.2-17.4c0.4,1.7,0.8,3,1.1,4.3c4.3,17.7,20.2,30.9,38.4,31.7c1.9,0.1,2.3-0.4,2.3-2.2c-0.1-17.7,0-35.4,0-53.1
		c0-0.9-0.2-1.9,0.2-2.8c0.7-0.5,1.4-0.9,2.1-1.5c4.1-3.4,7.8-7.2,11.3-11.2c1.2,1.3,2.4,2.6,3.6,3.8c1.4,1.3,2.3,3.3,4.2,4
		c-0.2,1,0.6,1.5,1.1,2.1c0.9,0.9,2,1.8,2.7,2.8c6.3,8.8,19.4,11,28.7,4.3c1.7-1.2,1.6-1.9,0.3-3.4
		C190.6,165,188.1,162.9,186.4,160.1L186.4,160.1z"/>
	<path class="st1" d="M138.6,166.4c-0.4,0.9-0.2,1.8-0.2,2.8c0,17.7,0,35.4,0,53.1c0,1.8-0.4,2.3-2.3,2.2
		c-18.1-0.9-34.1-14-38.4-31.7c-0.3-1.3-0.7-2.7-1.1-4.3c-1.4,6.5-3.1,12.4-7.2,17.4c-0.4-1.2-0.3-2.4-0.3-3.7c0-8.5,0-16.9,0-25.4
		c0-1.3,0.2-2.6-0.2-3.9c1.4-2.6,3.2-5,3.4-8.1c1.3-5.7,2.7-11.4,4.1-17.1c0.3-1.2-0.2-1.4-1.2-1.7c-4.3-1-8.6-2-12.8-3.2
		c-1.9-0.6-3-0.2-3.5,1.6c-0.4-0.1-0.9-0.3-1.3-0.4c-0.4-0.8-1.2-1.2-1.9-1.7c-10.3-7.2-24.1-7.5-34.7-0.7
		c-7.2,4.6-11.5,11.4-13.9,19.5c-2.2-1.6-4.6-2.8-6.7-4.6c-3.3-3-4.9-6.9-6.4-10.9c-0.2-3.9,0.1-7.7,0.8-11.6
		c2.9-15.2,5.7-30.5,8.5-45.8c1.3-7.1,5.3-11.4,12.3-12.9c6.4-1.4,12.8-2.6,19.1-4c2.6-0.6,5.3-0.9,8.2-2.1
		c-0.9-0.3-1.4-0.5-1.9-0.7C54.2,65.8,52,57,57,51.8c2.1-2.1,2.2-3.7,1.2-6c-0.2-0.3-0.2-0.7-0.4-1.1c-1.1-3.1-2.1-6.2-3.3-9.2
		c-2.1-5.4-1.5-10.8,0.3-16.2c2.3-3.9,5-7.4,9.2-9.7c2-1.1,4.2-1.7,6.3-2.5c4.8-1.8,9.6-3.5,14.4-5.5C89,0,93.1-0.1,96.8,3
		c3.7,3.1,4.4,7.1,3.4,11.6c-0.7,1.2-1.4,2.5-2.1,3.7c-2.5,2.2-5.5,3.3-8.6,4.5c-3,1.2-5.9,2.4-8.9,3.5c-1.6,0.6-2.2,1.1-1.4,2.9
		c1.1,2.4,1.9,5.1,2.8,7.6c0.5,1.3,0.7,2.7,0.5,4.1c-0.4,2.4-2.8,4.9-5.5,5.4c-2,0.4-1.9-1.8-2.8-2.8c-1.7-2-3.9-2.8-6.2-2
		c-2.1,0.7-3.5,2.8-3.4,5.1c0.1,2.3,1.5,4.2,4,4.8c1.2,0.3,1.6,0.8,1.6,2c0,4.9,0,9.8,0.1,14.7c1.8,5.9,4.2,11.7,6.5,17.5
		c0.7,1.9,1.3,3.8,2,5.7c5.9,15.6,11.8,31.2,18,47.4c0.2-1.5,0.3-2.3,0.4-3c0.8-9.5,1.7-19,2.4-28.5c0.4-5.3,1.2-10.6,1.2-16
		c0.2-2,0.5-4,0.7-6c0.6-7.2,1.2-14.4,1.8-21.6c0.1,0,0.2-0.1,0.2-0.2c12.3,2.6,24.6,5.2,36.8,7.9c6.4,1.4,10.3,5.5,11.7,11.8
		c2.3,10.5,4.3,21,6.4,31.4c0.3,1.6,0.2,3.4,1.3,4.6c2.3,2.5,4.4,5.2,7,7.4c3.3,4.3,7.3,8,10.8,12c0.6,0.7,1.5,1.3,1.9,2.3
		c-6.5,6.9-13.1,13.8-19.6,20.7c-2-0.7-2.8-2.7-4.2-4c-1.3-1.2-2.4-2.6-3.6-3.8c-4.3-4.9-8.7-9.7-13.4-15c-0.1,1.4-0.1,2.2-0.1,2.9
		c0,6,0,11.9,0,17.9C138.4,161.8,138.1,164.1,138.6,166.4z"/>
	<path class="st2" d="M88.9,172.9c0.4,1.3,0.2,2.6,0.2,3.9c0,8.5,0,16.9,0,25.4c0,1.2-0.1,2.5,0.3,3.7c0,0,0-0.1,0-0.1
		c-0.5,0-0.2,0.3-0.1,0.4c-0.3,5.8-0.3,11.7-2.8,17.1C80.9,236.2,71,243.5,57,245c-2,0.2-2.7-0.3-2.7-2.4
		c0.1-11.3,0.1-22.5,0.1-33.8c0-0.7,0-1.3,0-2c-0.1,0-0.3-0.1-0.4-0.1c-0.6,1.4-1.1,2.8-1.7,4.2c-8,20.1-29.9,30.7-50.1,24.4
		c-1.6-0.5-2.1-1-1.4-2.7c8.8-23.8,17.5-47.7,26.2-71.5c2.3-8.1,6.6-14.8,13.9-19.5c10.6-6.8,24.4-6.5,34.7,0.7
		c0.7,0.5,1.5,0.9,1.9,1.7c-1.7,0-3.4,0-5.1,0.2c-9.1,1.2-16.2,10.4-14.8,19.4c1.5,10.2,10.3,17,19.9,15.5
		C82.1,178.4,85.6,175.9,88.9,172.9z"/>
	<path class="st3" d="M98.1,18.4c0.7-1.2,1.4-2.5,2.1-3.7c37.5,6.6,65.9,36.2,70.7,74c1.5,12.2,0.5,24.2-3.2,35.9
		c-0.2,0.7-0.3,1.5-0.9,2.1c-2.6-2.2-4.8-4.9-7-7.4c-1.1-1.3-1-3.1-1.3-4.6c-2.2-10.5-4.2-21-6.4-31.4c-1.4-6.3-5.3-10.4-11.7-11.8
		c-12.3-2.7-24.6-5.3-36.8-7.9c0-0.9,0.7-1.5,1.2-2.2c2.6-4.2,3.6-8.7,2.2-13.4C104.1,37.9,101.8,27.9,98.1,18.4z"/>
	<path class="st3" d="M54.8,19.4c-1.8,5.4-2.4,10.7-0.3,16.2c1.2,3,2.2,6.1,3.3,9.2c0.1,0.4,0.2,0.7,0.4,1.1c1.1,2.3,0.9,3.9-1.2,6
		c-5.1,5.2-2.8,14,3.9,16.8c0.5,0.2,1,0.4,1.9,0.7c-2.8,1.2-5.6,1.5-8.2,2.1c-6.4,1.4-12.8,2.6-19.1,4c-7,1.5-11,5.9-12.3,12.9
		c-2.8,15.3-5.6,30.5-8.5,45.8c-0.7,3.8-1,7.7-0.8,11.6c-5.1-7.2-8.5-15.3-10.8-23.8C-8.3,80.3,12.7,37,52.4,20.2
		C53.2,19.8,54,19.6,54.8,19.4z"/>
	<path class="st4" d="M159.8,161.6c6.5-6.9,13.1-13.8,19.6-20.7c4.9,0,9.8,0,14.7,0c2.2,0,2.9,1,2.4,3.1c-0.6,2.7-3.2,4.6-6.6,4.9
		c-0.4,0-0.8,0-1.2,0c-0.6,0.1-1.4-0.3-1.6,0.5c-0.1,0.6,0.6,1.1,1.1,1.4c3,2.3,6,4.6,9,6.9c0.4,0.3,0.8,0.7,1.3,1
		c1.4,1.2,2.2,2.5,1.1,4.2c-1.1,1.7-3.3,2.2-5.1,1.2c-1.9-1.1-3.7-2.2-5.6-3.4c-0.7-0.5-1.5-0.9-2.4-0.8c-0.1,0-0.1-0.1-0.2-0.1
		c0.1,0,0.1,0.1,0.2,0.1c1.7,2.8,4.2,5,6.3,7.4c1.3,1.5,1.3,2.2-0.3,3.4c-9.3,6.8-22.3,4.6-28.7-4.3c-0.8-1.1-1.8-1.9-2.7-2.8
		C160.4,163.2,159.6,162.7,159.8,161.6z"/>
	<path class="st3" d="M138.6,166.4c-0.5-2.3-0.2-4.6-0.2-6.9c-0.1-6,0-11.9,0-17.9c0-0.7,0.1-1.5,0.1-2.9c4.7,5.3,9.1,10.2,13.4,15
		c-3.5,4-7.1,7.8-11.3,11.2C140,165.5,139.3,165.9,138.6,166.4z"/>
	<path class="st5" d="M89.4,206.2c-0.1-0.2-0.4-0.4,0.1-0.4C89.4,205.9,89.4,206.1,89.4,206.2z"/>
	<path class="st4" d="M98.1,18.4c3.8,9.6,6,19.6,8.8,29.4c1.3,4.7,0.4,9.2-2.2,13.4c-0.4,0.7-1.2,1.3-1.2,2.2c0,0.1-0.1,0.2-0.2,0.2
		c-4.7,3.2-9,6.8-12.8,11c-1.9,1.7-3.9,2.9-6.2,0.6c-1.4-0.8-2.8-1.8-4.3-2.5c-3.2-1.5-6-3.7-9.5-4.4c0-4.9-0.1-9.8-0.1-14.7
		c0-1.2-0.3-1.7-1.6-2c-2.5-0.6-3.9-2.5-4-4.8c-0.1-2.2,1.3-4.3,3.4-5.1c2.3-0.8,4.5,0,6.2,2c0.9,1,0.7,3.2,2.8,2.8
		c2.7-0.5,5.1-3,5.5-5.4c0.2-1.4,0-2.8-0.5-4.1c-0.9-2.6-1.7-5.2-2.8-7.6c-0.8-1.8-0.2-2.3,1.4-2.9c3-1.1,5.9-2.4,8.9-3.5
		C92.6,21.7,95.6,20.5,98.1,18.4z"/>
	<path class="st4" d="M88.9,172.9c-3.3,3-6.8,5.5-11.4,6.2c-9.6,1.4-18.4-5.4-19.9-15.5c-1.3-9,5.7-18.1,14.8-19.4
		c1.7-0.2,3.4-0.1,5.1-0.2c0.4,0.1,0.9,0.3,1.3,0.4c-0.1,3.1-1.2,6-2,9c-0.5,1.8-0.3,2.6,1.8,2.5c6.6-0.3,11.2,2.8,13.8,8.8
		C92.1,167.8,90.3,170.2,88.9,172.9z"/>
	<path class="st6" d="M100.8,91.2c0,5.4-0.7,10.6-1.2,16c-0.7,9.5-1.6,19-2.4,28.5c-0.1,0.8-0.2,1.5-0.4,3
		c-6.2-16.2-12.1-31.8-18-47.4c2.6-3.9,5.2-7.7,7.6-11.6c0.8-1.3,1.3-1.3,2.4-0.2C92.8,83.5,96.8,87.3,100.8,91.2z"/>
	<path class="st6" d="M92.3,164.7c-2.6-6-7.2-9.1-13.8-8.8c-2.1,0.1-2.2-0.6-1.8-2.5c0.8-3,1.9-5.9,2-9c0.6-1.9,1.6-2.2,3.5-1.6
		c4.2,1.2,8.5,2.2,12.8,3.2c1,0.2,1.5,0.5,1.2,1.7C94.9,153.3,93.6,159,92.3,164.7z"/>
	<path class="st2" d="M100.8,91.2c-4-3.9-8-7.8-11.9-11.7c-1.1-1.1-1.6-1.1-2.4,0.2c-2.5,3.9-5.1,7.8-7.6,11.6
		c-0.7-1.9-1.3-3.8-2-5.7c2.5-3.5,4.9-7,7.4-10.5c2.3,2.3,4.2,1.1,6.2-0.6c1.1,1.1,2.2,2.3,3.4,3.4c2.6,2.4,4.7,5.2,7.7,7.2
		C101.2,87.2,101,89.2,100.8,91.2z"/>
	<path class="st6" d="M101.5,85.2c-3-2-5.1-4.9-7.7-7.2c-1.2-1.1-2.3-2.3-3.4-3.4c3.9-4.1,8.1-7.8,12.8-11
		C102.6,70.8,102.1,78,101.5,85.2z"/>
	<path class="st6" d="M84.2,75.1c-2.5,3.5-4.9,7-7.4,10.5c-2.3-5.8-4.7-11.5-6.5-17.5c3.5,0.7,6.4,2.9,9.5,4.4
		C81.4,73.3,82.8,74.3,84.2,75.1z"/>
	<path class="st0" d="M186.4,160.1c-0.1,0-0.1-0.1-0.2-0.1C186.3,160,186.3,160,186.4,160.1C186.4,160.1,186.4,160.1,186.4,160.1z"
		/>
</g>
</svg>
