<?xml version="1.0" ?><!DOCTYPE svg  PUBLIC '-//W3C//DTD SVG 1.1//EN'  'http://www.w3.org/Graphics/SVG/1.1/DTD/svg11.dtd'><svg height="6.82666in" style="shape-rendering:geometricPrecision; text-rendering:geometricPrecision; image-rendering:optimizeQuality; fill-rule:evenodd; clip-rule:evenodd" viewBox="0 0 6.82666 6.82666" width="6.82666in" xml:space="preserve" xmlns="http://www.w3.org/2000/svg" xmlns:xlink="http://www.w3.org/1999/xlink"><defs><style type="text/css">
   <![CDATA[
    .fil1 {fill:none}
    .fil0 {fill:black}
   ]]>
  </style></defs><g id="Layer_x0020_1"><path class="fil0" d="M2.33133 2.06018c-0.0458858,-0.298224 -0.0688346,-0.52652 -0.0688346,-0.718728 0,-0.131941 0.0107598,-0.247283 0.0322677,-0.356736l-0.821697 1.03374c0.0898976,-0.0284173 0.184665,-0.0426339 0.293386,-0.0426339 0.152346,0 0.331972,0.0281181 0.564878,0.0843543z"/><path class="fil0" d="M4.12149 2.39612c-0.131508,0.175343 -0.304362,0.348197 -0.477213,0.521043l-0.0282835 0.0282795 -0.0282756 -0.0282795c-0.172846,-0.17285 -0.345705,-0.345705 -0.477205,-0.521043 -0.134035,-0.17872 -0.223402,-0.358559 -0.223402,-0.540575 0,-0.106106 0.043063,-0.20222 0.112642,-0.271799 0.0695787,-0.0695787 0.165693,-0.112642 0.271799,-0.112642 0.0956457,0 0.168122,0.0245 0.229358,0.0734882 0.043752,0.0350039 0.0804724,0.0819055 0.115087,0.140921 0.0346142,-0.0590157 0.0713346,-0.105917 0.115087,-0.140921 0.0612441,-0.0489882 0.133717,-0.0734882 0.229366,-0.0734882 0.106106,0 0.20222,0.043063 0.271799,0.112642 0.0695787,0.0695787 0.112642,0.165693 0.112642,0.271799 0,0.182016 -0.0893661,0.361854 -0.223402,0.540575zm-1.77899 -1.05467c0,0.201472 0.025626,0.443252 0.076874,0.765622l0.0095 0.0597402 -0.058563 -0.0147362c-0.255028,-0.0641654 -0.445772,-0.096252 -0.603854,-0.096252 -0.145614,0 -0.263634,0.0274646 -0.379791,0.082378l0 3.83513 4.05334 0 0 -5.12 -3.03066 0c-0.0445591,0.149106 -0.0668465,0.300756 -0.0668465,0.488122zm-0.118051 2.28522l2.37777 0 0 0.08 -2.37777 0 0 -0.08zm0 0.799996l2.37777 0 0 0.08 -2.37777 0 0 -0.08zm0 0.800004l2.37777 0 0 0.08 -2.37777 0 0 -0.08z"/></g><rect class="fil1" height="6.82666" width="6.82666"/></svg>